<svg
  xmlns="http://www.w3.org/2000/svg"
  viewBox="0 0 24 24"
  fill="currentColor"
>
  <path d="M17.55 13.67a3.78 3.78 0 1 0-3.78-3.78 3.78 3.78 0 0 0 3.78 3.78zm0-6.2a2.42 2.42 0 1 1-2.42 2.42 2.42 2.42 0 0 1 2.42-2.42z"/>
  <path d="M11.07 13.06 7.5 11.57a3.77 3.77 0 1 0 1.78 5.17l3.9-2.25a4.88 4.88 0 0 1-2.11-1.43zM6.08 18.1a2.42 2.42 0 1 1 2.42-2.42 2.42 2.42 0 0 1-2.42 2.42z"/>
  <path d="M12 2C6.48 2 2 6.49 2 12a10 10 0 0 0 7.68 9.74l-2.4-5.14a3.8 3.8 0 0 1 4.35-5.32l3.2-1.85A4.8 4.8 0 0 1 22 12c0-5.51-4.49-10-10-10z"/>
</svg>
